<svg xmlns="http://www.w3.org/2000/svg" version="1.1" xmlns:xlink="http://www.w3.org/1999/xlink" xmlns:svgjs="http://svgjs.com/svgjs" width="1440" height="600" preserveAspectRatio="none" viewBox="0 0 1440 600"><g mask="url(&quot;#SvgjsMask1007&quot;)" fill="none"><rect width="1440" height="600" x="0" y="0" fill="rgba(107, 241, 161, 1)"></rect><path d="M 0,72 C 57.6,93.4 172.8,182.4 288,179 C 403.2,175.6 460.8,50.8 576,55 C 691.2,59.2 748.8,206.8 864,200 C 979.2,193.2 1036.8,27.2 1152,21 C 1267.2,14.8 1382.4,139.4 1440,169L1440 600L0 600z" fill="rgba(220, 245, 64, 1)"></path><path d="M 0,463 C 96,448 288,361.4 480,388 C 672,414.6 768,611.2 960,596 C 1152,580.8 1344,368.8 1440,312L1440 600L0 600z" fill="rgba(241, 245, 160, 1)"></path></g><defs><mask id="SvgjsMask1007"><rect width="1440" height="600" fill="#ffffff"></rect></mask></defs></svg>